<?xml version="1.0" encoding="UTF-8"?>
<svg id="Layer_2" data-name="Layer 2" xmlns="http://www.w3.org/2000/svg" viewBox="0 0 127.7 39.11">
  <g id="Layer_1-2" data-name="Layer 1">
    <g>
      <g>
        <path d="M.68,30.53c-.27,0-.46-.1-.58-.29-.12-.19-.13-.42-.03-.69L10.64.98c.1-.27.28-.5.54-.69.26-.19.53-.29.8-.29h15.58c1.07,0,2.01.21,2.82.62.81.42,1.44.98,1.89,1.69.45.71.7,1.54.77,2.49s-.11,1.97-.51,3.07l-5.47,14.77c-.41,1.1-.99,2.12-1.76,3.07-.77.95-1.64,1.78-2.61,2.49-.98.71-2.02,1.28-3.14,1.69-1.12.42-2.21.62-3.28.62H.68ZM8.06,24.43h10.46c.5,0,.98-.17,1.44-.51.45-.34.77-.76.96-1.27l5.47-14.77c.19-.5.18-.93-.02-1.27-.2-.34-.55-.51-1.06-.51h-10.46l-6.79,18.33Z"/>
        <path d="M58.39,0c.27,0,.49.09.68.27.19.18.28.39.28.62l.51,15.93c0,.24-.03.54-.09.91-.06.37-.15.69-.24.96l-4.02,10.86c-.1.27-.28.5-.54.69-.26.19-.53.29-.8.29h-4.18c-.27,0-.46-.1-.58-.29s-.13-.42-.03-.69l1.89-5.12h-12.19l-1.89,5.12c-.1.27-.28.5-.54.69-.26.19-.53.29-.8.29h-4.14c-.27,0-.46-.1-.58-.29-.12-.19-.13-.42-.03-.69l4.02-10.86c.1-.27.25-.58.47-.96.21-.37.4-.67.58-.91L48.41.89c.2-.24.47-.44.79-.62.32-.18.61-.27.88-.27h8.32ZM41.55,18.33h11.75l-.37-12.24h-1.96l-9.42,12.24Z"/>
        <path d="M86.05,29.64c.03.24-.05.44-.23.62-.18.18-.41.27-.68.27h-4.76c-.27,0-.49-.09-.68-.27-.19-.18-.3-.38-.33-.62l-.93-11.3h-6.05l-4.15,11.21c-.1.27-.28.5-.54.69-.26.19-.53.29-.8.29h-4.18c-.27,0-.46-.1-.58-.29-.12-.19-.13-.42-.03-.69L72.67.98c.1-.27.28-.5.54-.69.26-.19.53-.29.8-.29h15.58c1.1,0,2.04.21,2.84.62.79.42,1.42.98,1.87,1.69.45.71.7,1.54.77,2.49.06.95-.11,1.97-.51,3.07l-.95,2.58c-.33.89-.79,1.74-1.37,2.56-.58.82-1.25,1.56-2,2.23-.75.67-1.56,1.24-2.44,1.71-.87.47-1.77.83-2.69,1.07l.95,11.61ZM85.06,12.24c.5,0,.99-.17,1.46-.51.47-.34.79-.76.98-1.27l.95-2.58c.19-.5.17-.93-.04-1.27s-.57-.51-1.08-.51h-10.41l-2.27,6.14h10.41Z"/>
        <path d="M126.08,5.16c-.1.27-.27.49-.51.67-.24.18-.5.27-.77.27h-16.46l-2.27,6.14h14.91c.27,0,.46.09.59.27.13.18.14.4.04.67l-1.55,4.18c-.1.27-.28.5-.54.69-.27.19-.53.29-.8.29h-14.91l-2.26,6.1h16.46c.27,0,.45.1.56.29.11.19.11.42.01.69l-1.53,4.14c-.1.27-.27.5-.52.69-.25.19-.51.29-.77.29h-21.63c-.27,0-.45-.1-.56-.29-.11-.19-.11-.42-.01-.69L104.13.98c.1-.27.27-.5.52-.69.25-.19.51-.29.77-.29h21.63c.27,0,.45.1.56.29.11.19.11.42.01.69l-1.55,4.18Z"/>
      </g>
      <g>
        <path d="M54.26,38.97h-.43c-.08,0-.12-.04-.12-.12v-4.24c0-.08.04-.12.12-.12h.43c.08,0,.12.04.12.12v.25h.03c.11-.24.34-.36.69-.36h.35c.33,0,.58.09.76.27.18.18.26.45.26.79v1.37c0,.34-.09.6-.26.79-.18.19-.43.28-.76.28h-.35c-.35,0-.58-.12-.69-.36h-.03v1.22c0,.08-.04.12-.12.12ZM54.94,37.42h.36c.33,0,.49-.17.49-.51v-1.32c0-.34-.16-.51-.49-.51h-.36c-.38,0-.56.19-.56.58v1.17c0,.39.19.58.56.58Z"/>
        <path d="M57.82,38h-.43c-.08,0-.12-.04-.12-.12v-4.6c0-.08.04-.12.12-.12h.43c.08,0,.12.04.12.12v1.57h.03c.11-.24.34-.36.69-.36h.3c.33,0,.59.09.77.27.18.18.27.45.27.79v2.32c0,.08-.04.12-.12.12h-.43c-.08,0-.12-.04-.12-.12v-2.3c0-.34-.17-.51-.5-.51h-.32c-.38,0-.56.19-.56.58v2.22c0,.08-.04.12-.12.12Z"/>
        <path d="M62.43,38h-.6c-.34,0-.6-.09-.79-.28-.19-.19-.28-.45-.28-.78v-1.37c0-.34.09-.6.28-.79.19-.19.45-.28.79-.28h.6c.33,0,.6.09.79.28.19.19.29.45.29.79v1.37c0,.33-.1.6-.29.78s-.45.28-.79.28ZM61.92,37.42h.42c.33,0,.49-.17.49-.5v-1.33c0-.33-.16-.5-.49-.5h-.42c-.17,0-.3.04-.38.12-.08.08-.12.21-.12.38v1.33c0,.17.04.3.12.38.08.08.2.12.38.12Z"/>
        <path d="M64.39,35.08h-.33s-.08,0-.09-.02-.02-.04-.02-.09v-.36c0-.08.04-.12.12-.12h.33s.07-.02.07-.07v-.62c0-.08.04-.12.12-.12h.43c.08,0,.12.04.12.12v.62s.03.07.08.07h.64c.08,0,.12.04.12.12v.36c0,.07-.04.11-.12.11h-.64c-.05,0-.08.02-.08.07v1.77c0,.33.17.5.52.5h.27c.08,0,.12.04.12.12v.36c0,.07-.04.11-.12.11h-.37c-.34,0-.6-.09-.8-.27-.19-.18-.29-.44-.29-.78v-1.8s-.02-.07-.07-.07Z"/>
        <path d="M68.3,38h-.6c-.34,0-.6-.09-.79-.28-.19-.19-.28-.45-.28-.78v-1.37c0-.34.09-.6.28-.79.19-.19.45-.28.79-.28h.6c.33,0,.6.09.79.28.19.19.29.45.29.79v1.37c0,.33-.1.6-.29.78s-.45.28-.79.28ZM67.8,37.42h.42c.33,0,.49-.17.49-.5v-1.33c0-.33-.16-.5-.49-.5h-.42c-.17,0-.3.04-.38.12-.08.08-.12.21-.12.38v1.33c0,.17.04.3.12.38.08.08.2.12.38.12Z"/>
        <path d="M71.45,37.83h-.31c-.33,0-.58-.09-.76-.28s-.26-.45-.26-.79v-1.2c0-.34.09-.6.28-.79.19-.19.45-.28.78-.28h1.54c.08,0,.12.04.12.12v3.4c0,.33-.1.59-.29.78-.19.19-.45.28-.79.28h-1.29c-.08,0-.12-.04-.12-.11v-.36c0-.08.04-.12.12-.12h1.19c.33,0,.5-.17.5-.51v-.52h-.03c-.11.25-.35.37-.69.37ZM72.17,36.66v-1.51s-.03-.07-.08-.07h-.82c-.33,0-.49.17-.49.51v1.14c0,.34.16.51.49.51h.33c.38,0,.56-.19.56-.58Z"/>
        <path d="M74.25,38h-.43c-.08,0-.12-.04-.12-.12v-3.27c0-.08.04-.12.12-.12h.43c.08,0,.12.04.12.12v.26h.03c.05-.11.13-.21.26-.28.13-.07.28-.1.44-.1h.25c.08,0,.12.04.12.12v.36c0,.09-.04.12-.12.11h-.41c-.38,0-.57.21-.57.63v2.18c0,.08-.04.12-.12.12Z"/>
        <path d="M77.27,38h-.27c-.34,0-.6-.09-.79-.28-.19-.19-.28-.45-.28-.78v-1.37c0-.34.09-.6.28-.79.19-.19.45-.28.79-.28h1.54c.08,0,.12.04.12.12v3.27c0,.08-.04.12-.12.12h-.43c-.08,0-.12-.04-.12-.12v-.25h-.03c-.11.24-.34.36-.69.36ZM77.99,36.83v-1.68s-.03-.07-.08-.07h-.82c-.33,0-.49.17-.49.51v1.32c0,.34.16.51.49.51h.33c.38,0,.56-.19.56-.58Z"/>
        <path d="M80.07,38.97h-.43c-.08,0-.12-.04-.12-.12v-4.24c0-.08.04-.12.12-.12h.43c.08,0,.12.04.12.12v.25h.03c.11-.24.34-.36.69-.36h.35c.33,0,.58.09.76.27.18.18.26.45.26.79v1.37c0,.34-.09.6-.26.79s-.43.28-.76.28h-.35c-.35,0-.58-.12-.69-.36h-.03v1.22c0,.08-.04.12-.12.12ZM80.75,37.42h.36c.33,0,.49-.17.49-.51v-1.32c0-.34-.16-.51-.49-.51h-.36c-.38,0-.56.19-.56.58v1.17c0,.39.19.58.56.58Z"/>
        <path d="M83.63,38h-.43c-.08,0-.12-.04-.12-.12v-4.6c0-.08.04-.12.12-.12h.43c.08,0,.12.04.12.12v1.57h.03c.11-.24.34-.36.69-.36h.3c.33,0,.59.09.77.27.18.18.27.45.27.79v2.32c0,.08-.04.12-.12.12h-.43c-.08,0-.12-.04-.12-.12v-2.3c0-.34-.17-.51-.5-.51h-.32c-.38,0-.56.19-.56.58v2.22c0,.08-.04.12-.12.12Z"/>
        <path d="M87.05,39.11h-.36c-.08,0-.12-.04-.12-.12v-.35c0-.08.04-.12.12-.12h.16c.28,0,.47-.06.58-.16s.2-.29.27-.54h-.27c-.07,0-.12-.04-.14-.12l-.91-3.09c-.02-.08.01-.12.09-.12h.46c.07,0,.12.04.14.12l.75,2.69h.03l.75-2.69c.01-.08.06-.12.14-.12h.44c.09,0,.12.04.11.12l-.94,3.31c-.11.38-.25.68-.45.88-.19.2-.47.31-.82.31Z"/>
        <path d="M92.94,38h-.47c-.33,0-.6-.09-.78-.27s-.28-.44-.28-.78v-.47c0-.23.06-.43.18-.6.12-.17.29-.27.52-.29-.19-.24-.28-.51-.28-.8v-.14c0-.33.1-.59.3-.77.2-.19.47-.28.81-.28h.21c.33,0,.6.09.78.27s.28.44.28.78v.27c0,.08-.04.12-.12.12h-.43c-.08,0-.12-.04-.12-.12v-.25c0-.33-.15-.49-.46-.49h-.08c-.32,0-.48.16-.48.49v.14c0,.21.1.42.3.65l.36.42h1.57c.08,0,.12.04.12.12v.35c0,.08-.04.12-.12.12h-1.08l1.23,1.46s.02.04.02.06-.02.03-.05.03h-.55c-.09,0-.16-.03-.2-.08l-.34-.4c-.11.32-.39.48-.84.48ZM92.56,37.41h.38c.26,0,.4-.12.43-.35l-.93-1.08c-.27.01-.4.19-.4.54v.39c0,.33.17.5.52.5Z"/>
        <path d="M98.61,38h-.35c-.33,0-.58-.09-.76-.28-.18-.19-.26-.45-.26-.79v-1.37c0-.34.09-.61.26-.79.18-.18.43-.27.76-.27h.35c.35,0,.58.12.69.36h.03v-1.57c0-.08.04-.12.12-.12h.44c.08,0,.12.04.12.12v4.6c0,.08-.04.12-.12.12h-.44c-.08,0-.12-.04-.12-.12v-.25h-.03c-.11.24-.33.36-.69.36ZM99.33,36.83v-1.17c0-.39-.19-.58-.56-.58h-.36c-.33,0-.49.17-.49.51v1.32c0,.34.16.51.49.51h.36c.38,0,.56-.19.56-.58Z"/>
        <path d="M103.35,38h-1.48c-.34,0-.6-.09-.79-.28-.19-.19-.28-.45-.28-.78v-1.37c0-.34.09-.6.28-.79.19-.19.45-.28.79-.28h.56c.34,0,.6.09.79.28.19.19.28.45.28.79v.87c0,.08-.04.12-.12.12h-1.84c-.05,0-.08.02-.08.07v.3c0,.33.17.5.5.5h1.39c.08,0,.12.04.12.12v.34c0,.07-.04.11-.12.11ZM101.54,36.09h1.23s.07-.02.07-.07v-.44c0-.17-.04-.3-.12-.38-.08-.08-.2-.12-.38-.12h-.38c-.17,0-.3.04-.38.12-.08.08-.12.21-.12.38v.44s.02.07.07.07Z"/>
        <path d="M105.51,38h-1.26c-.08,0-.12-.04-.12-.12v-.34c0-.07.04-.11.12-.11h1.15c.3,0,.45-.1.45-.31v-.08c0-.18-.11-.32-.32-.42l-.75-.36c-.23-.11-.4-.23-.51-.36-.11-.13-.16-.31-.16-.52,0-.59.33-.89.98-.89h1.14c.07,0,.11.04.11.12v.34c0,.08-.04.12-.11.12h-1c-.14,0-.24.02-.32.07-.07.05-.11.11-.11.19v.08c0,.15.12.27.35.38l.76.38c.24.11.4.23.49.37.09.14.13.33.13.56,0,.6-.34.89-1.02.89Z"/>
        <path d="M107.28,33.91v-.63c0-.07.04-.11.11-.11h.45c.07,0,.11.04.11.11v.63c0,.08-.04.12-.11.12h-.45c-.07,0-.11-.04-.11-.12ZM107.28,37.88v-3.27c0-.08.04-.12.11-.12h.44c.08,0,.12.04.12.12v3.27s0,.08-.02.09-.04.02-.09.02h-.44c-.08,0-.12-.04-.12-.12Z"/>
        <path d="M110.13,37.83h-.31c-.33,0-.58-.09-.76-.28-.18-.19-.26-.45-.26-.79v-1.2c0-.34.09-.6.28-.79.19-.19.45-.28.78-.28h1.54c.08,0,.12.04.12.12v3.4c0,.33-.1.59-.29.78s-.45.28-.79.28h-1.29c-.08,0-.12-.04-.12-.11v-.36c0-.08.04-.12.12-.12h1.19c.33,0,.5-.17.5-.51v-.52h-.03c-.11.25-.35.37-.69.37ZM110.85,36.66v-1.51s-.03-.07-.08-.07h-.82c-.33,0-.49.17-.49.51v1.14c0,.34.16.51.49.51h.33c.38,0,.56-.19.56-.58Z"/>
        <path d="M112.93,38h-.43c-.08,0-.12-.04-.12-.12v-3.27c0-.08.04-.12.12-.12h.43c.08,0,.12.04.12.12v.25h.03c.11-.24.34-.36.69-.36h.3c.33,0,.59.09.77.27.18.18.27.45.27.79v2.32c0,.08-.04.12-.12.12h-.43c-.08,0-.12-.04-.12-.12v-2.3c0-.34-.17-.51-.5-.51h-.32c-.38,0-.56.19-.56.58v2.22c0,.08-.04.12-.12.12Z"/>
      </g>
    </g>
  </g>
</svg>