<?xml version="1.0" encoding="UTF-8"?>
<svg id="Layer_2" data-name="Layer 2" xmlns="http://www.w3.org/2000/svg" viewBox="0 0 466.01 111.92">
  <defs>
    <style>
      .cls-1 {
        fill: #fff;
      }
    </style>
  </defs>
  <g id="Layer_1-2" data-name="Layer 1">
    <g>
      <g>
        <polygon class="cls-1" points="147.33 71.14 144.46 78.88 186.62 78.88 189.49 71.14 147.33 71.14"/>
        <path class="cls-1" d="M135.21,47.98c.73-1.28,1.4-2.33,2.01-3.15L171.71,0h-45.76c.24,1.04.4,2.14.48,3.28.22,3.28-.37,6.82-1.78,10.62l-18.91,51.09c-1.41,3.8-3.43,7.34-6.08,10.62-.93,1.15-1.92,2.23-2.94,3.28h26.65l10.21-27.59c.34-.92.88-2.02,1.61-3.31Z"/>
        <path class="cls-1" d="M340.45,0c.24,1.04.4,2.14.48,3.28.22,3.28-.37,6.82-1.78,10.62l-3.3,8.92c-1.14,3.08-2.72,6.03-4.74,8.85-2.02,2.82-4.33,5.39-6.93,7.69-2.6,2.31-5.41,4.29-8.42,5.92-3.02,1.64-6.12,2.87-9.3,3.69l2.45,29.9h30.49L368.61,0h-28.16Z"/>
        <path class="cls-1" d="M217.79,0l1.44,44.83c0,.82-.1,1.87-.32,3.15-.22,1.29-.5,2.39-.84,3.31l-10.21,27.59h22.77L259.83,0h-42.03Z"/>
        <path class="cls-1" d="M76.24,71.14c1.74,0,3.39-.59,4.96-1.77,1.56-1.18,2.67-2.64,3.31-4.39l18.91-51.09c.64-1.74.62-3.21-.07-4.39-.7-1.18-1.91-1.77-3.65-1.77h-36.16l-23.46,63.4h36.16Z"/>
        <path class="cls-1" d="M456.74,0h-6.88l-1.67,4.51c-.34.92-.93,1.69-1.78,2.31-.84.61-1.72.92-2.65.92h-56.93l-7.86,21.24h51.55c.92,0,1.6.31,2.04.92.44.62.49,1.38.15,2.31l-5.36,14.46c-.34.92-.97,1.72-1.88,2.38-.92.67-1.83,1-2.76,1h-51.55l-7.8,21.08h56.94c.92,0,1.57.33,1.94,1,.37.67.38,1.46.04,2.39l-1.61,4.35h14.46c3.4-2.37,5.87-4.11,9.27-6.48l21.62-59.15c-3.93-5.62-5.34-7.64-9.27-13.25Z"/>
        <path class="cls-1" d="M45.33,0h-14.44c-3.4,2.37-5.87,4.11-9.27,6.48L0,65.63c3.93,5.62,5.34,7.64,9.27,13.25h6.86L45.33,0Z"/>
        <path class="cls-1" d="M314.2,7.74h-36.01l-7.86,21.24h36.01c1.74,0,3.42-.59,5.04-1.77,1.61-1.18,2.75-2.64,3.39-4.39l3.3-8.92c.64-1.74.6-3.21-.15-4.39s-1.98-1.77-3.73-1.77Z"/>
        <polygon class="cls-1" points="283.46 50.06 262.53 50.06 251.86 78.88 285.84 78.88 283.46 50.06"/>
        <polygon class="cls-1" points="155.9 50.06 196.52 50.06 195.26 7.74 188.49 7.74 155.9 50.06"/>
      </g>
      <g>
        <path class="cls-1" d="M90.19,111.23h-2.05c-.37,0-.55-.18-.55-.55v-20.09c0-.37.18-.55.55-.55h2.05c.37,0,.55.19.55.55v1.17h.13c.52-1.15,1.62-1.73,3.29-1.73h1.66c1.56,0,2.76.43,3.6,1.3.84.87,1.25,2.12,1.25,3.74v6.51c0,1.61-.42,2.85-1.25,3.73-.84.88-2.03,1.32-3.6,1.32h-1.66c-1.67,0-2.77-.58-3.29-1.73h-.13v5.76c0,.37-.19.55-.55.55ZM93.41,103.88h1.73c1.56,0,2.34-.8,2.34-2.41v-6.25c0-1.61-.78-2.41-2.34-2.41h-1.73c-1.78,0-2.67.92-2.67,2.77v5.53c0,1.85.89,2.77,2.67,2.77Z"/>
        <path class="cls-1" d="M107.05,106.64h-2.05c-.37,0-.55-.18-.55-.55v-21.78c0-.37.19-.55.55-.55h2.05c.37,0,.55.18.55.55v7.46h.13c.52-1.15,1.62-1.73,3.29-1.73h1.43c1.58,0,2.8.43,3.65,1.3.85.87,1.27,2.12,1.27,3.74v11c0,.37-.2.55-.59.55h-2.05c-.37,0-.55-.18-.55-.55v-10.87c0-1.61-.79-2.41-2.38-2.41h-1.53c-1.78,0-2.67.92-2.67,2.77v10.52c0,.37-.19.55-.55.55Z"/>
        <path class="cls-1" d="M128.87,106.64h-2.86c-1.61,0-2.85-.44-3.73-1.33-.88-.89-1.32-2.13-1.32-3.71v-6.51c0-1.61.44-2.85,1.32-3.73.88-.88,2.12-1.32,3.73-1.32h2.86c1.58,0,2.83.44,3.73,1.32.9.88,1.35,2.12,1.35,3.73v6.51c0,1.58-.45,2.82-1.35,3.71-.9.89-2.14,1.33-3.73,1.33ZM126.46,103.88h1.99c1.56,0,2.34-.79,2.34-2.38v-6.32c0-1.58-.78-2.38-2.34-2.38h-1.99c-.83,0-1.42.19-1.79.57-.37.38-.55.98-.55,1.81v6.32c0,.83.19,1.43.55,1.81.37.38.97.57,1.79.57Z"/>
        <path class="cls-1" d="M138.18,92.81h-1.56c-.22,0-.36-.04-.44-.11s-.11-.21-.11-.41v-1.69c0-.37.18-.55.55-.55h1.56c.22,0,.33-.11.33-.33v-2.93c0-.37.2-.55.59-.55h2.05c.37,0,.55.18.55.55v2.93c0,.22.12.33.36.33h3.03c.39,0,.59.19.59.55v1.69c0,.35-.2.52-.59.52h-3.03c-.24,0-.36.11-.36.33v8.37c0,1.58.81,2.38,2.44,2.38h1.27c.39,0,.59.19.59.55v1.69c0,.35-.2.52-.59.52h-1.76c-1.61,0-2.86-.43-3.78-1.3-.91-.87-1.37-2.09-1.37-3.68v-8.53c0-.22-.11-.33-.33-.33Z"/>
        <path class="cls-1" d="M156.7,106.64h-2.86c-1.61,0-2.85-.44-3.73-1.33-.88-.89-1.32-2.13-1.32-3.71v-6.51c0-1.61.44-2.85,1.32-3.73.88-.88,2.12-1.32,3.73-1.32h2.86c1.58,0,2.83.44,3.73,1.32.9.88,1.35,2.12,1.35,3.73v6.51c0,1.58-.45,2.82-1.35,3.71-.9.89-2.14,1.33-3.73,1.33ZM154.3,103.88h1.99c1.56,0,2.34-.79,2.34-2.38v-6.32c0-1.58-.78-2.38-2.34-2.38h-1.99c-.83,0-1.42.19-1.79.57-.37.38-.55.98-.55,1.81v6.32c0,.83.19,1.43.55,1.81.37.38.97.57,1.79.57Z"/>
        <path class="cls-1" d="M171.58,105.83h-1.47c-1.56,0-2.76-.44-3.6-1.32-.84-.88-1.25-2.12-1.25-3.73v-5.7c0-1.61.45-2.85,1.34-3.73.89-.88,2.13-1.32,3.71-1.32h7.29c.39,0,.59.19.59.55v16.12c0,1.58-.45,2.82-1.35,3.7-.9.88-2.14,1.32-3.73,1.32h-6.12c-.37,0-.55-.17-.55-.52v-1.69c0-.37.19-.55.55-.55h5.63c1.58,0,2.38-.8,2.38-2.41v-2.47h-.13c-.54,1.17-1.64,1.76-3.29,1.76ZM175,100.3v-7.16c0-.22-.12-.33-.36-.33h-3.87c-1.54,0-2.31.8-2.31,2.41v5.4c0,1.61.77,2.41,2.31,2.41h1.56c1.78,0,2.67-.91,2.67-2.74Z"/>
        <path class="cls-1" d="M184.87,106.64h-2.05c-.37,0-.55-.18-.55-.55v-15.5c0-.37.19-.55.55-.55h2.05c.37,0,.55.19.55.55v1.24h.13c.22-.54.64-.98,1.25-1.3.62-.33,1.31-.49,2.07-.49h1.21c.37,0,.55.19.55.55v1.69c0,.41-.19.59-.55.52h-1.95c-1.8,0-2.7.99-2.7,2.96v10.32c0,.37-.19.55-.55.55Z"/>
        <path class="cls-1" d="M199.16,106.64h-1.27c-1.61,0-2.85-.44-3.73-1.33-.88-.89-1.32-2.13-1.32-3.71v-6.51c0-1.61.44-2.85,1.32-3.73.88-.88,2.12-1.32,3.73-1.32h7.29c.39,0,.59.19.59.55v15.5c0,.37-.2.55-.59.55h-2.05c-.37,0-.55-.18-.55-.55v-1.17h-.13c-.52,1.15-1.62,1.73-3.29,1.73ZM202.58,101.11v-7.98c0-.22-.12-.33-.36-.33h-3.87c-1.56,0-2.34.8-2.34,2.41v6.25c0,1.61.78,2.41,2.34,2.41h1.56c1.78,0,2.67-.92,2.67-2.77Z"/>
        <path class="cls-1" d="M212.44,111.23h-2.05c-.37,0-.55-.18-.55-.55v-20.09c0-.37.19-.55.55-.55h2.05c.37,0,.55.19.55.55v1.17h.13c.52-1.15,1.62-1.73,3.29-1.73h1.66c1.56,0,2.76.43,3.6,1.3.84.87,1.25,2.12,1.25,3.74v6.51c0,1.61-.42,2.85-1.25,3.73-.84.88-2.03,1.32-3.6,1.32h-1.66c-1.67,0-2.77-.58-3.29-1.73h-.13v5.76c0,.37-.19.55-.55.55ZM215.67,103.88h1.73c1.56,0,2.34-.8,2.34-2.41v-6.25c0-1.61-.78-2.41-2.34-2.41h-1.73c-1.78,0-2.67.92-2.67,2.77v5.53c0,1.85.89,2.77,2.67,2.77Z"/>
        <path class="cls-1" d="M229.31,106.64h-2.05c-.37,0-.55-.18-.55-.55v-21.78c0-.37.18-.55.55-.55h2.05c.37,0,.55.18.55.55v7.46h.13c.52-1.15,1.62-1.73,3.29-1.73h1.43c1.58,0,2.8.43,3.65,1.3.85.87,1.27,2.12,1.27,3.74v11c0,.37-.2.55-.59.55h-2.05c-.37,0-.55-.18-.55-.55v-10.87c0-1.61-.79-2.41-2.38-2.41h-1.53c-1.78,0-2.67.92-2.67,2.77v10.52c0,.37-.19.55-.55.55Z"/>
        <path class="cls-1" d="M245.49,111.92h-1.73c-.37,0-.55-.18-.55-.55v-1.66c0-.39.18-.59.55-.59h.75c1.32,0,2.24-.26,2.75-.78s.94-1.38,1.29-2.57h-1.3c-.33,0-.55-.18-.68-.55l-4.33-14.62c-.09-.37.05-.55.42-.55h2.18c.35,0,.56.19.65.55l3.55,12.76h.13l3.55-12.76c.07-.37.28-.55.65-.55h2.08c.41,0,.59.2.52.59l-4.46,15.66c-.5,1.82-1.2,3.22-2.12,4.18-.91.97-2.21,1.45-3.91,1.45Z"/>
        <path class="cls-1" d="M273.39,106.64h-2.25c-1.58,0-2.82-.43-3.71-1.3-.89-.87-1.33-2.09-1.33-3.68v-2.25c0-1.09.28-2.04.85-2.87.56-.82,1.39-1.28,2.47-1.37-.89-1.15-1.34-2.42-1.34-3.81v-.68c0-1.56.47-2.78,1.42-3.66.95-.88,2.22-1.32,3.83-1.32h.98c1.58,0,2.82.43,3.71,1.3s1.34,2.09,1.34,3.68v1.27c0,.39-.19.59-.55.59h-2.05c-.37,0-.55-.2-.55-.59v-1.2c0-1.56-.73-2.34-2.18-2.34h-.39c-1.52,0-2.28.78-2.28,2.34v.68c0,.98.48,2,1.43,3.06l1.73,1.99h7.46c.37,0,.55.2.55.59v1.66c0,.37-.19.55-.55.55h-5.11l5.83,6.9c.09.09.11.18.08.29s-.11.16-.24.16h-2.6c-.44,0-.75-.13-.94-.39l-1.6-1.89c-.5,1.52-1.82,2.28-3.97,2.28ZM271.6,103.84h1.79c1.22,0,1.9-.55,2.05-1.66l-4.39-5.11c-1.26.07-1.89.91-1.89,2.54v1.86c0,1.58.81,2.38,2.44,2.38Z"/>
        <path class="cls-1" d="M300.28,106.64h-1.66c-1.56,0-2.76-.44-3.6-1.32-.84-.88-1.25-2.12-1.25-3.73v-6.51c0-1.63.42-2.88,1.25-3.74.84-.87,2.03-1.3,3.6-1.3h1.66c1.67,0,2.76.58,3.26,1.73h.13v-7.46c0-.37.18-.55.55-.55h2.08c.37,0,.55.18.55.55v21.78c0,.37-.19.55-.55.55h-2.08c-.37,0-.55-.18-.55-.55v-1.17h-.13c-.5,1.15-1.59,1.73-3.26,1.73ZM303.67,101.11v-5.53c0-1.84-.89-2.77-2.67-2.77h-1.73c-1.56,0-2.34.8-2.34,2.41v6.25c0,1.61.78,2.41,2.34,2.41h1.73c1.78,0,2.67-.92,2.67-2.77Z"/>
        <path class="cls-1" d="M322.71,106.64h-7.03c-1.61,0-2.85-.44-3.73-1.33-.88-.89-1.32-2.13-1.32-3.71v-6.51c0-1.61.44-2.85,1.32-3.73.88-.88,2.12-1.32,3.73-1.32h2.67c1.61,0,2.85.44,3.74,1.32.89.88,1.34,2.12,1.34,3.73v4.13c0,.39-.2.59-.59.59h-8.72c-.24,0-.36.11-.36.33v1.4c0,1.58.79,2.38,2.38,2.38h6.58c.39,0,.59.2.59.59v1.63c0,.35-.2.52-.59.52ZM314.12,97.59h5.83c.22,0,.33-.11.33-.33v-2.08c0-.82-.18-1.43-.55-1.81-.37-.38-.97-.57-1.79-.57h-1.79c-.83,0-1.42.19-1.79.57-.37.38-.55.98-.55,1.81v2.08c0,.22.11.33.33.33Z"/>
        <path class="cls-1" d="M332.94,106.64h-5.99c-.37,0-.55-.18-.55-.55v-1.6c0-.35.18-.52.55-.52h5.47c1.41,0,2.12-.49,2.12-1.46v-.39c0-.87-.51-1.53-1.53-1.99l-3.55-1.69c-1.11-.52-1.91-1.1-2.41-1.73-.5-.63-.75-1.45-.75-2.47,0-2.8,1.55-4.2,4.66-4.2h5.4c.35,0,.52.19.52.55v1.59c0,.37-.17.55-.52.55h-4.75c-.65,0-1.15.11-1.5.34-.35.23-.52.53-.52.9v.36c0,.69.55,1.3,1.66,1.82l3.58,1.82c1.13.5,1.9,1.09,2.33,1.77.42.68.63,1.57.63,2.65,0,2.82-1.62,4.23-4.85,4.23Z"/>
        <path class="cls-1" d="M341.34,87.27v-2.96c0-.35.17-.52.52-.52h2.12c.35,0,.52.17.52.52v2.96c0,.37-.17.55-.52.55h-2.12c-.35,0-.52-.18-.52-.55ZM341.34,106.09v-15.5c0-.37.17-.55.52-.55h2.08c.37,0,.55.19.55.55v15.5c0,.22-.04.36-.11.44s-.21.11-.41.11h-2.08c-.37,0-.55-.18-.55-.55Z"/>
        <path class="cls-1" d="M354.82,105.83h-1.47c-1.56,0-2.76-.44-3.6-1.32-.84-.88-1.25-2.12-1.25-3.73v-5.7c0-1.61.45-2.85,1.34-3.73.89-.88,2.13-1.32,3.71-1.32h7.29c.39,0,.59.19.59.55v16.12c0,1.58-.45,2.82-1.35,3.7-.9.88-2.14,1.32-3.73,1.32h-6.12c-.37,0-.55-.17-.55-.52v-1.69c0-.37.18-.55.55-.55h5.63c1.59,0,2.38-.8,2.38-2.41v-2.47h-.13c-.54,1.17-1.64,1.76-3.29,1.76ZM358.23,100.3v-7.16c0-.22-.12-.33-.36-.33h-3.87c-1.54,0-2.31.8-2.31,2.41v5.4c0,1.61.77,2.41,2.31,2.41h1.56c1.78,0,2.67-.91,2.67-2.74Z"/>
        <path class="cls-1" d="M368.1,106.64h-2.05c-.37,0-.55-.18-.55-.55v-15.5c0-.37.19-.55.55-.55h2.05c.37,0,.55.19.55.55v1.17h.13c.52-1.15,1.62-1.73,3.29-1.73h1.43c1.58,0,2.8.43,3.65,1.3.85.87,1.27,2.12,1.27,3.74v11c0,.37-.2.55-.59.55h-2.05c-.37,0-.55-.18-.55-.55v-10.87c0-1.61-.79-2.41-2.38-2.41h-1.53c-1.78,0-2.67.92-2.67,2.77v10.52c0,.37-.19.55-.55.55Z"/>
      </g>
    </g>
  </g>
</svg>