<?xml version="1.0" encoding="UTF-8"?>
<svg id="Layer_2" data-name="Layer 2" xmlns="http://www.w3.org/2000/svg" viewBox="0 0 466.56 153.7">
  <defs>
    <style>
      .cls-1 {
        opacity: .76;
      }

      .cls-2 {
        opacity: .15;
      }

      .cls-3 {
        fill: #f5f5f5;
      }
    </style>
  </defs>
  <g id="Layer_1-2" data-name="Layer 1">
    <g>
      <g class="cls-2">
        <path class="cls-3" d="M48.76,100.35h-20.45c-2.19,0-3.49-1.09-3.9-3.28L.23,3.59C-.5,1.2.54,0,3.35,0h14.67c2.08,0,3.33,1.09,3.75,3.28l16.39,76.79h.62L55.16,3.28c.41-2.19,1.66-3.28,3.75-3.28h14.67c2.6,0,3.64,1.2,3.12,3.59l-24.19,93.49c-.52,2.18-1.77,3.28-3.75,3.28Z"/>
        <path class="cls-3" d="M101.2,3.28v93.8c0,2.18-1.09,3.28-3.28,3.28h-13.27c-2.19,0-3.28-1.09-3.28-3.28V3.28c0-2.19,1.09-3.28,3.28-3.28h13.27c2.19,0,3.28,1.09,3.28,3.28Z"/>
        <path class="cls-3" d="M127.11,100.35h-13.27c-2.19,0-3.28-1.09-3.28-3.28V3.28c0-2.19,1.09-3.28,3.28-3.28h37.15c8.12,0,14.46,2.24,19.04,6.71,4.58,4.48,6.87,10.77,6.87,18.88v12.17c0,11.76-4.63,19.56-13.89,23.41v.62l16.7,34.8c.94,2.5.05,3.75-2.65,3.75h-12.64c-1.87,0-3.23-.21-4.06-.62-.83-.42-1.51-1.3-2.03-2.65l-15.61-33.71h-10.46c-1.25,0-1.87.57-1.87,1.72v32c0,2.18-1.09,3.28-3.28,3.28ZM132.11,47.45h15.29c3.33,0,5.77-.7,7.34-2.11,1.56-1.41,2.34-3.67,2.34-6.79v-12.17c0-3.22-.78-5.56-2.34-7.02-1.56-1.46-4.01-2.19-7.34-2.19h-15.29c-1.15,0-1.72.57-1.72,1.72v26.84c0,1.15.57,1.72,1.72,1.72Z"/>
        <path class="cls-3" d="M204.83,3.28v93.8c0,2.18-1.09,3.28-3.28,3.28h-13.27c-2.19,0-3.28-1.09-3.28-3.28V3.28c0-2.19,1.09-3.28,3.28-3.28h13.27c2.19,0,3.28,1.09,3.28,3.28Z"/>
        <path class="cls-3" d="M214.2,97.08V3.28c0-2.19,1.09-3.28,3.28-3.28h38.55c8.12,0,14.44,2.21,18.96,6.63,4.53,4.42,6.79,10.69,6.79,18.81v49.48c0,8.12-2.26,14.38-6.79,18.81-4.53,4.42-10.85,6.63-18.96,6.63h-38.55c-2.19,0-3.28-1.09-3.28-3.28ZM235.74,83.19h17.01c3.33,0,5.7-.7,7.1-2.11,1.4-1.41,2.11-3.77,2.11-7.1V26.38c0-3.33-.7-5.7-2.11-7.1s-3.77-2.11-7.1-2.11h-17.01c-1.15,0-1.72.57-1.72,1.72v62.58c0,1.15.57,1.72,1.72,1.72Z"/>
        <path class="cls-3" d="M309.4,3.28v93.8c0,2.18-1.09,3.28-3.28,3.28h-13.27c-2.18,0-3.28-1.09-3.28-3.28V3.28c0-2.19,1.09-3.28,3.28-3.28h13.27c2.18,0,3.28,1.09,3.28,3.28Z"/>
        <path class="cls-3" d="M329.22,100.35h-14.98c-1.87,0-2.5-1.09-1.87-3.28L337.03,3.28c.73-2.19,2.29-3.28,4.68-3.28h20.76c2.6,0,4.16,1.09,4.68,3.28l24.66,93.8c.62,2.18,0,3.28-1.87,3.28h-14.98c-1.15,0-1.93-.23-2.34-.7-.42-.47-.73-1.33-.94-2.58l-4.37-17.17h-30.43l-4.37,17.17c-.21,1.25-.55,2.11-1.01,2.58s-1.22.7-2.26.7ZM351.85,18.88l-11.24,45.1h23.1l-11.24-45.1h-.62Z"/>
        <path class="cls-3" d="M411.78,100.35h-12.95c-2.18,0-3.28-1.09-3.28-3.28V3.28c0-2.19,1.09-3.28,3.28-3.28h11.71c2.18,0,3.64.73,4.37,2.19l31.53,59.15h.62V3.28c0-2.19,1.09-3.28,3.28-3.28h12.95c2.18,0,3.28,1.09,3.28,3.28v93.8c0,2.18-1.09,3.28-3.28,3.28h-11.39c-2.29,0-3.96-1.04-4.99-3.12l-31.21-58.06h-.62v57.9c0,2.18-1.09,3.28-3.28,3.28Z"/>
      </g>
      <g class="cls-2">
        <path class="cls-3" d="M48.76,153.7h-20.45c-2.19,0-3.49-1.09-3.9-3.28L.23,56.94c-.73-2.39.31-3.59,3.12-3.59h14.67c2.08,0,3.33,1.09,3.75,3.28l16.39,76.79h.62l16.39-76.79c.41-2.19,1.66-3.28,3.75-3.28h14.67c2.6,0,3.64,1.2,3.12,3.59l-24.19,93.49c-.52,2.18-1.77,3.28-3.75,3.28Z"/>
        <path class="cls-3" d="M101.2,56.63v93.8c0,2.18-1.09,3.28-3.28,3.28h-13.27c-2.19,0-3.28-1.09-3.28-3.28V56.63c0-2.19,1.09-3.28,3.28-3.28h13.27c2.19,0,3.28,1.09,3.28,3.28Z"/>
        <path class="cls-3" d="M127.11,153.7h-13.27c-2.19,0-3.28-1.09-3.28-3.28V56.63c0-2.19,1.09-3.28,3.28-3.28h37.15c8.12,0,14.46,2.24,19.04,6.71,4.58,4.48,6.87,10.77,6.87,18.88v12.17c0,11.76-4.63,19.56-13.89,23.41v.62l16.7,34.8c.94,2.5.05,3.75-2.65,3.75h-12.64c-1.87,0-3.23-.21-4.06-.62-.83-.42-1.51-1.3-2.03-2.65l-15.61-33.71h-10.46c-1.25,0-1.87.57-1.87,1.72v32c0,2.18-1.09,3.28-3.28,3.28ZM132.11,100.79h15.29c3.33,0,5.77-.7,7.34-2.11,1.56-1.41,2.34-3.67,2.34-6.79v-12.17c0-3.22-.78-5.56-2.34-7.02-1.56-1.46-4.01-2.19-7.34-2.19h-15.29c-1.15,0-1.72.57-1.72,1.72v26.84c0,1.15.57,1.72,1.72,1.72Z"/>
        <path class="cls-3" d="M204.83,56.63v93.8c0,2.18-1.09,3.28-3.28,3.28h-13.27c-2.19,0-3.28-1.09-3.28-3.28V56.63c0-2.19,1.09-3.28,3.28-3.28h13.27c2.19,0,3.28,1.09,3.28,3.28Z"/>
        <path class="cls-3" d="M214.2,150.43V56.63c0-2.19,1.09-3.28,3.28-3.28h38.55c8.12,0,14.44,2.21,18.96,6.63,4.53,4.42,6.79,10.69,6.79,18.81v49.48c0,8.12-2.26,14.38-6.79,18.81-4.53,4.42-10.85,6.63-18.96,6.63h-38.55c-2.19,0-3.28-1.09-3.28-3.28ZM235.74,136.53h17.01c3.33,0,5.7-.7,7.1-2.11,1.4-1.41,2.11-3.77,2.11-7.1v-47.6c0-3.33-.7-5.7-2.11-7.1s-3.77-2.11-7.1-2.11h-17.01c-1.15,0-1.72.57-1.72,1.72v62.58c0,1.15.57,1.72,1.72,1.72Z"/>
        <path class="cls-3" d="M309.4,56.63v93.8c0,2.18-1.09,3.28-3.28,3.28h-13.27c-2.18,0-3.28-1.09-3.28-3.28V56.63c0-2.19,1.09-3.28,3.28-3.28h13.27c2.18,0,3.28,1.09,3.28,3.28Z"/>
        <path class="cls-3" d="M329.22,153.7h-14.98c-1.87,0-2.5-1.09-1.87-3.28l24.66-93.8c.73-2.19,2.29-3.28,4.68-3.28h20.76c2.6,0,4.16,1.09,4.68,3.28l24.66,93.8c.62,2.18,0,3.28-1.87,3.28h-14.98c-1.15,0-1.93-.23-2.34-.7-.42-.47-.73-1.33-.94-2.58l-4.37-17.17h-30.43l-4.37,17.17c-.21,1.25-.55,2.11-1.01,2.58s-1.22.7-2.26.7ZM351.85,72.23l-11.24,45.1h23.1l-11.24-45.1h-.62Z"/>
        <path class="cls-3" d="M411.78,153.7h-12.95c-2.18,0-3.28-1.09-3.28-3.28V56.63c0-2.19,1.09-3.28,3.28-3.28h11.71c2.18,0,3.64.73,4.37,2.19l31.53,59.15h.62v-58.06c0-2.19,1.09-3.28,3.28-3.28h12.95c2.18,0,3.28,1.09,3.28,3.28v93.8c0,2.18-1.09,3.28-3.28,3.28h-11.39c-2.29,0-3.96-1.04-4.99-3.12l-31.21-58.06h-.62v57.9c0,2.18-1.09,3.28-3.28,3.28Z"/>
      </g>
      <g class="cls-1">
        <path class="cls-3" d="M48.76,127.03h-20.45c-2.19,0-3.49-1.09-3.9-3.28L.23,30.26c-.73-2.39.31-3.59,3.12-3.59h14.67c2.08,0,3.33,1.09,3.75,3.28l16.39,76.79h.62L55.16,29.95c.41-2.19,1.66-3.28,3.75-3.28h14.67c2.6,0,3.64,1.2,3.12,3.59l-24.19,93.49c-.52,2.18-1.77,3.28-3.75,3.28Z"/>
        <path class="cls-3" d="M101.2,29.95v93.8c0,2.18-1.09,3.28-3.28,3.28h-13.27c-2.19,0-3.28-1.09-3.28-3.28V29.95c0-2.19,1.09-3.28,3.28-3.28h13.27c2.19,0,3.28,1.09,3.28,3.28Z"/>
        <path class="cls-3" d="M127.11,127.03h-13.27c-2.19,0-3.28-1.09-3.28-3.28V29.95c0-2.19,1.09-3.28,3.28-3.28h37.15c8.12,0,14.46,2.24,19.04,6.71,4.58,4.48,6.87,10.77,6.87,18.88v12.17c0,11.76-4.63,19.56-13.89,23.41v.62l16.7,34.8c.94,2.5.05,3.75-2.65,3.75h-12.64c-1.87,0-3.23-.21-4.06-.62-.83-.42-1.51-1.3-2.03-2.65l-15.61-33.71h-10.46c-1.25,0-1.87.57-1.87,1.72v31.99c0,2.18-1.09,3.28-3.28,3.28ZM132.11,74.12h15.29c3.33,0,5.77-.7,7.34-2.11,1.56-1.4,2.34-3.67,2.34-6.79v-12.17c0-3.22-.78-5.56-2.34-7.02-1.56-1.46-4.01-2.19-7.34-2.19h-15.29c-1.15,0-1.72.57-1.72,1.72v26.84c0,1.15.57,1.72,1.72,1.72Z"/>
        <path class="cls-3" d="M204.83,29.95v93.8c0,2.18-1.09,3.28-3.28,3.28h-13.27c-2.19,0-3.28-1.09-3.28-3.28V29.95c0-2.19,1.09-3.28,3.28-3.28h13.27c2.19,0,3.28,1.09,3.28,3.28Z"/>
        <path class="cls-3" d="M214.2,123.75V29.95c0-2.19,1.09-3.28,3.28-3.28h38.55c8.12,0,14.44,2.21,18.96,6.63,4.53,4.42,6.79,10.69,6.79,18.81v49.48c0,8.11-2.26,14.38-6.79,18.81-4.53,4.42-10.85,6.63-18.96,6.63h-38.55c-2.19,0-3.28-1.09-3.28-3.28ZM235.74,109.86h17.01c3.33,0,5.7-.7,7.1-2.11,1.4-1.41,2.11-3.77,2.11-7.1v-47.6c0-3.33-.7-5.7-2.11-7.1s-3.77-2.11-7.1-2.11h-17.01c-1.15,0-1.72.57-1.72,1.72v62.58c0,1.15.57,1.72,1.72,1.72Z"/>
        <path class="cls-3" d="M309.4,29.95v93.8c0,2.18-1.09,3.28-3.28,3.28h-13.27c-2.18,0-3.28-1.09-3.28-3.28V29.95c0-2.19,1.09-3.28,3.28-3.28h13.27c2.18,0,3.28,1.09,3.28,3.28Z"/>
        <path class="cls-3" d="M329.22,127.03h-14.98c-1.87,0-2.5-1.09-1.87-3.28l24.66-93.8c.73-2.19,2.29-3.28,4.68-3.28h20.76c2.6,0,4.16,1.09,4.68,3.28l24.66,93.8c.62,2.18,0,3.28-1.87,3.28h-14.98c-1.15,0-1.93-.23-2.34-.7-.42-.47-.73-1.33-.94-2.58l-4.37-17.17h-30.43l-4.37,17.17c-.21,1.25-.55,2.11-1.01,2.58s-1.22.7-2.26.7ZM351.85,45.56l-11.24,45.1h23.1l-11.24-45.1h-.62Z"/>
        <path class="cls-3" d="M411.78,127.03h-12.95c-2.18,0-3.28-1.09-3.28-3.28V29.95c0-2.19,1.09-3.28,3.28-3.28h11.71c2.18,0,3.64.73,4.37,2.19l31.53,59.15h.62V29.95c0-2.19,1.09-3.28,3.28-3.28h12.95c2.18,0,3.28,1.09,3.28,3.28v93.8c0,2.18-1.09,3.28-3.28,3.28h-11.39c-2.29,0-3.96-1.04-4.99-3.12l-31.21-58.06h-.62v57.9c0,2.18-1.09,3.28-3.28,3.28Z"/>
      </g>
    </g>
  </g>
</svg>